# xmcd
#
# Track frame offsets:
#	150
#	12205
#	29887
#	41853
#	55389
#	68416
#	86626
#	98777
#	109485
#	121888
#	134409
#	147277
#	167188
#	181974
#
# Disc length: 2672 seconds
#
# Revision: 0
# Processed by: cddbd v1.5.2PL0 Copyright (c) Steve Scherf et al.
# Submitted via: EZCDAudioConverter 2.1.7.1
#
DISCID=cb0a6e0e
DTITLE=V/A - Function Underground
DYEAR=1900
DGENRE=
TTITLE0=1984 - Theres A Wrinkle In Our Time
TTITLE1=Purple Snow - Down By The River
TTITLE2=Jimi Macon - Jimi's Guitar Raps With The Bass
TTITLE3=Creations Unlimited - Corruption Is The Thing
TTITLE4=We The People - Function Underground
TTITLE5=Michael Liggins and The Super Souls - Loaded Back
TTITLE6=Stone Coal White - Stone Coal White
TTITLE7=Blacklites - BL Movement
TTITLE8=Ebony Rhythm Band - Drugs Ain't Cool
TTITLE9=Cisneros and Garza Group - I'm A Man
TTITLE10=L.A. Carnival - Blind Man [45 Version]
TTITLE11=The Revolution - The Siesta Is Over
TTITLE12=Black Conspirators - Just Got To Be Free
TTITLE13=Black Maffia - I Want To Take You Higher
EXTD=
EXTT0=
EXTT1=
EXTT2=
EXTT3=
EXTT4=
EXTT5=
EXTT6=
EXTT7=
EXTT8=
EXTT9=
EXTT10=
EXTT11=
EXTT12=
EXTT13=
PLAYORDER=
